<svg xmlns="http://www.w3.org/2000/svg" height="1024" width="1821.333"><defs><clipPath id="a" clipPathUnits="userSpaceOnUse"><path d="M0 768h1366V0H0z"/></clipPath><clipPath id="b" clipPathUnits="userSpaceOnUse"><path d="M688.386 539.834h587.604V404.297H688.386z"/></clipPath></defs><path d="M0 1024h1821.333V0H0z" fill="transparent"/><g clip-path="url(#a)" transform="matrix(1.33333 0 0 -1.33333 0 1024)"><path d="M384.596 387.036h-17.68v-59.658c0-6.55.654-10.216 1.112-12.05.46-.065.982-.065 1.703-.065h1.244c1.113 2.488 2.096 5.042 3.078 7.662 7.072 19.122 10.608 39.226 10.608 60.444 0 1.244 0 2.488-.065 3.667m-97.05-96.003a60.553 60.553 0 0 0-2.16-4.65c-5.765-11.918-13.426-21.283-23.119-28.094-9.692-6.876-21.282-10.281-34.838-10.281-13.752 0-25.343 3.405-34.773 10.15-9.43 6.746-17.224 16.242-23.379 28.42-5.959 11.986-10.412 26.066-13.162 42.24-2.816 16.11-4.192 33.267-4.192 51.472 0 42.763 6.418 75.899 19.253 99.344 12.77 23.444 31.565 35.166 56.253 35.166 14.472 0 26.587-3.8 36.28-11.33 7.727-5.96 14.144-13.49 19.45-22.592v2.226h65.747c-3.405 3.93-7.073 7.662-10.936 11.199-13.883 12.704-30.386 22.592-49.377 29.665-19.056 7.138-39.423 10.674-61.164 10.674-21.807 0-42.37-3.668-61.688-10.936-19.319-7.335-36.018-17.747-50.097-31.237-14.145-13.818-25.343-30.321-33.464-49.64C74.06 423.513 70 401.968 70 378.196c0-22.79 4.191-43.483 12.508-62.015 8.317-18.533 19.58-34.315 33.791-47.281 14.341-13.23 30.91-23.38 49.704-30.321 18.86-6.941 38.833-10.412 59.985-10.412 26.26 0 48.788 3.995 67.778 11.984 12.116 5.108 23.248 11.46 33.333 19.187-11.525 2.358-21.02 7.204-28.29 14.538-4.846 4.91-8.644 10.609-11.263 17.158" fill="#f56564"/><path d="M390.09 286.555c-6.102-2.667-12.625-5.071-19.583-7.221-6.958-2.141-15.438-3.21-25.44-3.21-14.869 0-25.9 3.614-33.095 10.847-7.195 7.232-10.788 17.56-10.788 30.984v87.67h-25.728v15.579h26.297v43.309h46.314v-43.31h40.167v-15.577h-39.88v-78.232c0-11.134 1.547-19.031 4.662-23.693 3.102-4.663 8.672-6.997 16.711-6.997 2.577 0 6.165.192 10.75.569 4.591.384 7.796.812 9.612 1.292zm125.21 19.301c2.098 5.333 3.645 11.812 4.643 19.435 1.004 7.623 1.503 16.486 1.503 26.585 0 6.669-.48 14.298-1.426 22.875-.96 8.575-2.386 15.34-4.292 20.298-2.29 5.998-5.455 10.718-9.503 14.146-4.054 3.434-9.177 5.148-15.367 5.148-6.766 0-12.177-1.855-16.225-5.577-4.048-3.715-7.17-8.524-9.362-14.433-2.002-5.43-3.383-11.793-4.144-19.083-.762-7.291-1.145-14.888-1.145-22.8 0-10.385.333-18.987 1.004-25.797.665-6.818 2.283-13.654 4.86-20.516 2.187-5.91 5.334-10.578 9.433-14.006 4.093-3.433 9.292-5.147 15.579-5.147 5.717 0 10.622 1.599 14.72 4.79 4.1 3.19 7.337 7.885 9.722 14.082m36.593 99.054c7.048-6.575 12.432-14.44 16.154-23.586 3.716-9.152 5.57-19.064 5.57-29.732 0-10.577-1.835-20.559-5.5-29.948-3.671-9.388-9.03-17.414-16.083-24.084-7.527-7.143-16.506-12.624-26.943-16.435-10.437-3.812-22.37-5.717-35.807-5.717-11.626 0-22.318 1.67-32.09 5.001-9.766 3.331-18.412 8.34-25.94 15.008-7.245 6.383-12.962 14.268-17.151 23.657-4.195 9.381-6.293 19.888-6.293 31.514 0 11.435 1.836 21.61 5.507 30.518 3.664 8.915 9.17 16.845 16.505 23.803 7.054 6.67 15.745 11.838 26.086 15.51 10.34 3.664 21.89 5.505 34.662 5.505 13.34 0 25.088-1.841 35.237-5.505 10.149-3.671 18.84-8.84 26.086-15.51m165.225-56.749c0 7.244-.544 14.222-1.638 20.943-1.093 6.715-2.923 12.65-5.493 17.798-2.564 5.141-5.94 9.266-10.124 12.362-4.182 3.095-9.362 4.642-15.54 4.642-5.794 0-10.597-.953-14.402-2.858-3.798-1.906-7.22-4.714-10.264-8.429v-83.194c.57-1.907 1.644-4.407 3.211-7.502 1.566-3.102 3.16-5.506 4.777-7.22 2.276-2.48 4.7-4.36 7.271-5.647 2.564-1.286 6.178-1.925 10.834-1.925 9.694 0 17.35 5.308 22.958 15.936 5.608 10.623 8.41 25.658 8.41 45.093m51.314 1.72c0-21.443-7.073-39.215-21.225-53.317-14.152-14.107-32.09-21.154-53.816-21.154-8.383 0-15.604.595-21.653 1.784-6.057 1.196-11.173 2.648-15.368 4.362-4.38 1.81-7.885 3.593-10.507 5.36-2.622 1.764-4.694 3.216-6.216 4.36l-20.439-18.585-8.435 3.287c.48 6.958.882 14.511 1.215 22.66.332 8.146.5 19.127.5 32.947V465.37c0 3.62-.737 6.983-2.214 10.08-1.477 3.094-3.453 5.454-5.935 7.072-1.809 1.144-4.45 2.15-7.93 3.006-3.479.857-6.695 1.381-9.65 1.573v10.43l70.75 3.716 2.148-2.283v-92.909h.857c6.945 6.766 14.083 11.722 21.411 14.862 7.33 3.147 14.658 4.72 21.987 4.72 19.984 0 35.735-6.817 47.247-20.439 11.518-13.628 17.273-32.07 17.273-55.318m116.776 7.571a187.293 187.293 0 0 1-15.924-6.235c-5.257-2.34-9.561-4.796-12.905-7.374-3.543-2.679-6.313-6.094-8.32-10.245-2.015-4.157-3.013-9.049-3.013-14.69 0-7.45 1.695-12.848 5.091-16.185 3.395-3.345 7.578-5.014 12.548-5.014 5.262 0 9.591 1.067 12.988 3.217a37.315 37.315 0 0 1 8.959 7.955zm70.896-74.472c-4.182-1.809-9.125-3.472-14.836-5-5.705-1.522-11.742-2.29-18.112-2.29-11.703 0-20.304 1.746-25.823 5.218-5.513 3.48-9.273 8.455-11.269 14.94h-.856c-3.242-3.243-6.37-6.005-9.376-8.289a53.628 53.628 0 0 0-9.662-5.864c-4.49-2.092-8.807-3.664-12.957-4.713-4.157-1.049-9.951-1.573-17.395-1.573-11.077 0-20.522 3.268-28.349 9.804-7.828 6.535-11.742 15.194-11.742 25.983 0 6.203.863 11.473 2.577 15.815 1.72 4.342 4.157 8.186 7.303 11.524 2.866 3.057 6.178 5.583 9.952 7.591 3.766 2.002 7.897 3.863 12.38 5.583 8.595 3.146 18.898 6.415 30.927 9.804 12.023 3.39 20.804 6.415 26.342 9.087v13.725c0 2.385-.192 5.525-.569 9.44-.384 3.9-1.197 7.187-2.431 9.86-1.336 3.044-3.434 5.621-6.292 7.72-2.859 2.09-6.626 3.14-11.294 3.14-4.195 0-7.7-.596-10.514-1.785-2.814-1.19-5.078-2.405-6.792-3.645.288-1.906 1.101-4.81 2.437-8.717 1.337-3.907 2.008-7.675 2.008-11.294 0-1.624-.428-3.645-1.291-6.075-.858-2.43-2.098-4.362-3.729-5.788a24.55 24.55 0 0 0-7.38-4.432c-2.724-1.049-6.907-1.573-12.541-1.573-8.032 0-14.101 1.931-18.207 5.788-4.112 3.862-6.165 8.89-6.165 15.08 0 5.34 2.117 10.123 6.364 14.37 4.233 4.233 9.407 7.737 15.507 10.5 5.999 2.86 12.912 5.078 20.727 6.651 7.808 1.573 15.055 2.36 21.725 2.36 9.241 0 17.72-.55 25.44-1.65 7.719-1.094 14.677-3.358 20.873-6.785 5.903-3.339 10.597-8.173 14.076-14.51 3.479-6.339 5.218-14.6 5.218-24.8 0-10.77-.217-23.536-.646-38.308-.428-14.774-.639-24.493-.639-29.162 0-4.285.639-7.668 1.931-10.143 1.286-2.48 3.262-4.343 5.928-5.577 1.618-.767 4.17-1.215 7.65-1.355a226.21 226.21 0 0 1 9.502-.217zm155.511-2.999H970.967v9.861l81.992 118.924c-11.358 0-21.565-.14-30.633-.428-9.068-.28-16.218-1.426-21.469-3.428-1.809-.665-4.22-4.125-7.226-10.366a103.36 103.36 0 0 1-7.086-19.512h-10.008v46.742h132.93v-8.857l-82.319-119.927c2.29 0 5.627-.052 10.015-.141 4.4-.096 8.595-.147 12.611-.147 4.668 0 9.682.122 15.028.358 5.347.236 9.503.55 12.46.927 3.912.48 7.045 1.81 9.386 4.004 2.341 2.193 4.17 4.808 5.513 7.866 1.24 2.763 2.865 6.932 4.873 12.502 1.995 5.577 3.53 10.552 4.58 14.939h10.001zm113.488 77.471a187.293 187.293 0 0 1-15.924-6.235c-5.257-2.34-9.56-4.796-12.905-7.374-3.536-2.679-6.312-6.094-8.32-10.245-2.007-4.157-3.012-9.049-3.012-14.69 0-7.45 1.695-12.848 5.09-16.185 3.397-3.345 7.579-5.014 12.554-5.014 5.257 0 9.587 1.067 12.983 3.217a37.366 37.366 0 0 1 8.966 7.955zM1296 282.98c-4.182-1.809-9.125-3.472-14.836-5-5.705-1.522-11.742-2.29-18.112-2.29-11.696 0-20.303 1.746-25.823 5.218-5.513 3.48-9.272 8.455-11.269 14.94h-.856c-3.242-3.243-6.37-6.005-9.375-8.289a53.671 53.671 0 0 0-9.663-5.864c-4.483-2.092-8.807-3.664-12.957-4.713s-9.95-1.573-17.395-1.573c-11.07 0-20.522 3.268-28.349 9.804-7.822 6.535-11.736 15.194-11.736 25.983 0 6.203.858 11.473 2.578 15.815 1.713 4.342 4.15 8.186 7.296 11.524 2.866 3.057 6.185 5.583 9.952 7.591 3.772 2.002 7.897 3.863 12.386 5.583 8.59 3.146 18.9 6.415 30.921 9.804 12.024 3.39 20.81 6.415 26.342 9.087v13.725c0 2.385-.192 5.525-.569 9.44-.384 3.9-1.197 7.187-2.43 9.86-1.337 3.044-3.435 5.621-6.293 7.72-2.859 2.09-6.626 3.14-11.294 3.14-4.195 0-7.7-.596-10.514-1.785-2.813-1.19-5.07-2.405-6.792-3.645.288-1.906 1.101-4.81 2.437-8.717 1.344-3.907 2.01-7.675 2.01-11.294 0-1.624-.43-3.645-1.293-6.075-.858-2.43-2.098-4.362-3.723-5.788a24.653 24.653 0 0 0-7.386-4.432c-2.724-1.049-6.9-1.573-12.54-1.573-8.026 0-14.094 1.931-18.207 5.788-4.106 3.862-6.166 8.89-6.166 15.08 0 5.34 2.123 10.123 6.364 14.37 4.24 4.233 9.407 7.737 15.507 10.5 6.007 2.86 12.913 5.078 20.728 6.651 7.808 1.573 15.055 2.36 21.725 2.36 9.24 0 17.727-.55 25.446-1.65 7.718-1.094 14.67-3.358 20.866-6.785 5.91-3.339 10.597-8.173 14.076-14.51 3.48-6.339 5.22-14.6 5.22-24.8 0-10.77-.213-23.536-.64-38.308-.429-14.774-.647-24.493-.647-29.162 0-4.285.646-7.668 1.931-10.143 1.286-2.48 3.262-4.343 5.93-5.577 1.624-.767 4.169-1.215 7.649-1.355a226.21 226.21 0 0 1 9.501-.217z" fill="#fff"/><g clip-path="url(#b)" opacity=".94"><text style="-inkscape-font-specification:Dubai-Light" transform="matrix(1 0 0 -1 688.386 454.905)" font-weight="300" font-size="103.071" font-family="Dubai Light" fill="#f3f4f3"><tspan y="0" x="0 63.285656 131.93102 183.6727 251.39041 294.06186 361.88263 425.16827 476.18848 528.96088">auto parts</tspan></text></g></g></svg>