<svg width="111" height="28" viewBox="0 0 111 28" fill="none" xmlns="http://www.w3.org/2000/svg">
  <path fill-rule="evenodd" clip-rule="evenodd"
        d="M13.6231 0.261067C13.0129 0.280144 12.9009 0.289131 12.2017 0.375134C9.00668 0.768153 6.07292 2.13886 4.02592 4.195C2.99577 5.22978 2.1854 6.3733 1.52228 7.7279C1.17528 8.43678 0.998987 8.86529 0.787592 9.51371C0.296202 11.0209 0.0846642 12.4434 0.0833801 14.2489C0.0820959 16.0493 0.285187 17.3466 0.80654 18.8679C1.00729 19.4538 1.16484 19.8178 1.51189 20.4978C2.14782 21.7439 2.85751 22.7179 3.84788 23.7038C4.77981 24.6316 5.61018 25.2649 6.74403 25.9125C7.87845 26.5605 9.43555 27.1364 10.8322 27.4246C11.9039 27.6457 12.6816 27.727 13.9091 27.7463C15.2697 27.7677 16.2633 27.698 17.4672 27.4968C19.4058 27.1729 21.3181 26.3815 22.9615 25.223C23.1381 25.0985 23.2826 24.9869 23.2826 24.975C23.2826 24.963 23.228 24.9445 23.1613 24.9338C22.7428 24.8668 21.9272 24.5305 21.4705 24.2366C20.8246 23.821 20.2423 23.1649 19.8948 22.4612L19.7376 22.1427L19.4993 22.6132C18.8845 23.8275 18.0608 24.7313 17.03 25.3225C15.553 26.1697 13.2692 26.2084 11.7255 25.4125C10.5756 24.8196 9.54501 23.6482 8.88686 22.1858C8.37974 21.059 8.05752 19.9558 7.81847 18.5278C7.57426 17.0689 7.48894 15.9135 7.48885 14.0633C7.48874 11.4427 7.67687 9.75726 8.18738 7.80557C8.47448 6.70798 8.93794 5.59905 9.45732 4.76686C9.73903 4.31548 10.0351 3.94652 10.4252 3.56082C11.1231 2.8707 11.8542 2.44931 12.7636 2.2131C14.1466 1.85384 15.7303 2.00266 16.8924 2.60107C17.6817 3.00756 18.4962 3.78056 19.1136 4.70903C19.3044 4.99604 19.3314 5.02569 19.3393 4.95706L19.3484 4.87911H22.3C24.2716 4.87911 25.2516 4.86959 25.2516 4.85043C25.2516 4.80621 24.6861 4.2172 24.3446 3.90573C22.7854 2.48363 20.8418 1.43083 18.6312 0.810956C17.08 0.375984 15.4988 0.202363 13.6231 0.261067ZM51.7473 3.30817C51.0881 3.34451 49.804 3.41325 48.8937 3.46087C47.9834 3.50852 47.1391 3.55537 47.0174 3.56501L46.7963 3.5825V4.04083V4.49913L47.0607 4.53232C47.6898 4.61124 48.2774 4.8157 48.5433 5.04814C48.8414 5.30887 49.056 5.77137 49.1108 6.27128C49.1532 6.65843 49.1268 20.5412 49.082 21.4191C49.0645 21.7621 49.0311 22.3609 49.0078 22.7498C48.9754 23.29 48.9733 23.4618 48.9989 23.4775C49.0174 23.4888 49.1898 23.5578 49.382 23.6308L49.7316 23.7635L50.6478 22.9359C51.1517 22.4807 51.5796 22.1148 51.5986 22.1227C51.6176 22.1306 51.7808 22.2407 51.9613 22.3675C52.7844 22.9457 53.9058 23.3275 55.1676 23.4591C55.7233 23.5171 56.956 23.5174 57.4528 23.4597C58.9165 23.2896 60.1885 22.6893 61.2313 21.6764C61.8312 21.0937 62.2076 20.5836 62.5505 19.8884C62.8684 19.2438 63.0896 18.4628 63.1745 17.6856C63.2126 17.3356 63.2133 16.2424 63.1755 15.8349C63.006 14.0045 62.4047 12.5899 61.3496 11.5399C60.5792 10.7731 59.689 10.3236 58.5354 10.119C58.2205 10.0632 58.0697 10.0538 57.483 10.0531C56.8827 10.0524 56.7589 10.0602 56.4801 10.1164C55.4751 10.3188 54.4755 10.8453 53.6601 11.6018C53.5452 11.7084 53.437 11.7956 53.4196 11.7956C53.3967 11.7956 53.3881 10.6512 53.3881 7.62027V3.44497L53.2799 3.34C53.1896 3.25244 53.1529 3.23563 53.0587 3.23855C52.9966 3.24051 52.4064 3.27183 51.7473 3.30817ZM91.8737 3.80556L91.6286 4.03134L91.6203 4.27806L91.6121 4.52479L91.4551 4.53351C91.3319 4.54037 91.2814 4.55823 91.2197 4.61677C91.1766 4.65776 91.1412 4.71442 91.1412 4.74268C91.1412 4.78826 91.1686 4.79407 91.3838 4.79407H91.6264V5.85606C91.6264 6.98875 91.6354 7.07458 91.7744 7.26132C91.8637 7.38137 92.0392 7.46403 92.2358 7.47877C92.4028 7.49127 92.4264 7.48438 92.7321 7.33434C93.055 7.17589 93.0921 7.13839 93.027 7.03631C93.0056 7.00269 92.9839 7.00377 92.8842 7.0434C92.7358 7.10236 92.5338 7.10332 92.4215 7.04558C92.367 7.01763 92.3118 6.95167 92.273 6.86842C92.2143 6.74205 92.2109 6.69004 92.2022 5.76493L92.1931 4.79407H92.565C92.9109 4.79407 92.9392 4.78999 92.9684 4.73591C92.9856 4.70393 92.9957 4.64973 92.9908 4.61544C92.9822 4.5556 92.9666 4.55256 92.5966 4.53896L92.2113 4.52479L92.2035 4.06694C92.1975 3.71496 92.1868 3.60569 92.1573 3.59443C92.1355 3.5861 92.0131 3.6772 91.8737 3.80556ZM66.265 3.82611L66.0295 4.0459V4.29243V4.53896L65.8655 4.541C65.7148 4.54287 65.6948 4.55092 65.6208 4.63947C65.5764 4.69248 65.5483 4.74897 65.5582 4.76499C65.5682 4.78098 65.6776 4.79407 65.8014 4.79407H66.0265L66.0351 5.89249C66.043 6.89141 66.0486 7.00187 66.0971 7.11202C66.1614 7.2582 66.3314 7.40921 66.4821 7.45405C66.6921 7.51655 66.7948 7.49685 67.1498 7.32601C67.445 7.18391 67.4832 7.15749 67.4676 7.10604C67.4384 7.00961 67.4151 7.00201 67.2867 7.04705C67.0933 7.11483 66.9063 7.10375 66.8043 7.01846C66.6276 6.87077 66.6145 6.78301 66.6145 5.74367V4.80825L66.9694 4.80025C67.1713 4.79569 67.3405 4.77891 67.3618 4.76133C67.3824 4.74435 67.3993 4.68735 67.3993 4.63471V4.53896H67.034C66.788 4.53896 66.6576 4.52785 66.6345 4.50494C66.6108 4.48144 66.6003 4.33677 66.6003 4.03723C66.6003 3.64257 66.5958 3.60365 66.5503 3.60492C66.5228 3.60569 66.3944 3.70521 66.265 3.82611ZM78.2368 4.46801C78.1314 4.50463 77.9163 4.56427 77.7589 4.60055C77.4856 4.66354 77.4727 4.66989 77.4726 4.74121C77.4725 4.80856 77.4883 4.8197 77.634 4.85459C77.7513 4.88271 77.8118 4.91517 77.8551 4.97328C77.9137 5.05188 77.9149 5.0815 77.9236 6.65115C77.9329 8.32277 77.9184 8.61567 77.8213 8.71208C77.7916 8.74162 77.6881 8.78074 77.5913 8.79899C77.4262 8.83017 77.4154 8.837 77.4154 8.91076V8.98931H78.243H79.0705V8.91053C79.0705 8.83476 79.0628 8.83057 78.8671 8.79995C78.7122 8.77572 78.6458 8.75043 78.5889 8.69388L78.5141 8.61964L78.5054 7.99742L78.4967 7.37519L78.5933 7.4153C78.8695 7.5299 79.157 7.48832 79.6127 7.26784C79.8379 7.15888 79.9254 7.09556 80.1297 6.8937C80.5659 6.4629 80.741 5.94813 80.6296 5.42435C80.5148 4.88436 80.1171 4.51104 79.6061 4.46364C79.3365 4.43864 79.2604 4.46123 78.8739 4.68117C78.6826 4.79005 78.5202 4.87911 78.5129 4.87911C78.5057 4.87911 78.4998 4.77069 78.4998 4.63817C78.4998 4.46319 78.49 4.39779 78.4641 4.39932C78.4445 4.40049 78.3422 4.43141 78.2368 4.46801ZM87.9309 4.49703C87.8368 4.53272 87.621 4.59086 87.4515 4.62618C87.1549 4.68803 87.1437 4.69308 87.1519 4.76057C87.159 4.81845 87.1845 4.83671 87.2986 4.86534C87.3746 4.88441 87.4645 4.92756 87.4984 4.9612C87.5591 5.02158 87.56 5.03592 87.56 6.00944C87.56 7.07274 87.5555 7.10743 87.4105 7.17305C87.371 7.19094 87.2825 7.21322 87.2139 7.22257C87.0996 7.23814 87.0891 7.24636 87.0891 7.32074V7.40192H87.9024H88.7157V7.32079C88.7157 7.24344 88.7083 7.23879 88.5566 7.22107C88.304 7.19159 88.2111 7.14116 88.1756 7.01443C88.158 6.95153 88.1452 6.61628 88.1451 6.21733C88.145 5.57053 88.1486 5.52158 88.2058 5.40947C88.4021 5.02458 88.6541 4.89867 88.8985 5.06336C88.9563 5.10234 89.0405 5.13423 89.0857 5.13423C89.2006 5.13423 89.336 5.01211 89.3732 4.87492C89.4553 4.5719 89.0926 4.35491 88.7585 4.50718C88.6288 4.56628 88.3982 4.79994 88.2725 4.99953C88.2259 5.07357 88.1781 5.13414 88.1664 5.13417C88.1546 5.1342 88.145 4.97478 88.145 4.7799C88.145 4.58502 88.1353 4.42705 88.1236 4.42886C88.1118 4.43065 88.0251 4.46135 87.9309 4.49703ZM57.2349 4.52357C56.813 4.67275 56.338 4.96843 56.2865 5.11387C56.2482 5.22207 56.2942 5.33194 56.4104 5.40972C56.6055 5.54037 56.7364 5.47126 56.8245 5.19092C56.8911 4.97929 56.9874 4.84056 57.1067 4.78432C57.2356 4.72358 57.3404 4.72582 57.4883 4.79246C57.6927 4.88467 57.8089 5.1287 57.8105 5.46914L57.8112 5.6198L57.5757 5.72893C57.4463 5.78894 57.1632 5.89901 56.9467 5.9735C56.3708 6.17164 56.2411 6.30234 56.2423 6.68337C56.2438 7.13144 56.5738 7.46822 57.0147 7.47143C57.1909 7.4727 57.2169 7.46411 57.4285 7.3344C57.5526 7.25829 57.6954 7.17127 57.7457 7.141L57.8372 7.08597L57.8774 7.1815C57.928 7.30189 58.0668 7.41913 58.2086 7.46133C58.3144 7.49283 58.328 7.4884 58.6094 7.33009C58.7697 7.23995 58.907 7.15009 58.9146 7.13039C58.9222 7.11066 58.9146 7.06871 58.8976 7.03716C58.8711 6.98804 58.8547 6.98393 58.7835 7.00859C58.6481 7.05547 58.5233 7.02905 58.4561 6.93928C58.3991 6.86331 58.3954 6.81541 58.3798 5.97551C58.3611 4.96163 58.3505 4.90692 58.128 4.67905C57.9067 4.45236 57.5915 4.39748 57.2349 4.52357ZM70.2902 4.53371C69.7527 4.71439 69.3826 5.12193 69.2687 5.65863C69.0596 6.64341 69.7421 7.48359 70.7534 7.48648C71.2627 7.48792 71.7965 7.18196 72.0456 6.74579C72.2322 6.41919 72.3011 5.90635 72.2067 5.54644C71.9892 4.7168 71.1168 4.25583 70.2902 4.53371ZM83.6327 4.54882C83.1782 4.72066 82.7748 4.9902 82.7347 5.14894C82.6991 5.29002 82.8758 5.47438 83.0467 5.47438C83.1557 5.47438 83.2259 5.39124 83.2942 5.1812C83.406 4.83764 83.6135 4.68783 83.8717 4.76437C84.1198 4.8379 84.2546 5.06342 84.2709 5.43186L84.2783 5.60194L84.0786 5.70642C83.9687 5.76388 83.703 5.87024 83.4881 5.94277C82.8813 6.14755 82.7327 6.2723 82.7029 6.60185C82.6657 7.01332 82.9293 7.37054 83.337 7.46116C83.4194 7.4795 83.5318 7.48614 83.5866 7.47593C83.6726 7.45992 83.9571 7.30571 84.2112 7.13742L84.2868 7.08736L84.3539 7.20812C84.4291 7.34338 84.5676 7.44881 84.7034 7.47409C84.7789 7.48818 84.8443 7.46199 85.0974 7.31652L85.4008 7.14204L85.3712 7.05766C85.3492 6.99493 85.3297 6.97837 85.2951 6.99317C85.1214 7.06752 84.9672 7.03606 84.9002 6.91255C84.857 6.83287 84.8484 6.7035 84.8346 5.92792C84.8193 5.07116 84.8161 5.02966 84.7533 4.90258C84.6596 4.71281 84.5181 4.58097 84.3353 4.51302C84.1081 4.42855 83.9264 4.43782 83.6327 4.54882ZM95.6998 4.48298C95.2511 4.59517 94.967 4.95894 95.0009 5.37792C95.0292 5.72822 95.2035 5.91468 95.7921 6.22434C96.264 6.47259 96.3466 6.55899 96.3481 6.80591C96.3492 6.9926 96.2981 7.08637 96.1353 7.19641C96.0173 7.27618 95.7987 7.28099 95.6355 7.20738C95.4637 7.12982 95.2408 6.87032 95.1458 6.6372C95.0835 6.48441 95.0518 6.43886 95.0079 6.43894C94.8916 6.43911 94.8834 6.46551 94.9134 6.7446C94.9602 7.17921 94.9896 7.26254 95.122 7.3365C95.1848 7.37156 95.3222 7.41975 95.4273 7.44359C96.2346 7.62679 96.9586 7.1597 96.8979 6.49482C96.866 6.14505 96.6779 5.94878 96.1249 5.68842C95.7138 5.49485 95.5577 5.37361 95.5132 5.21331C95.4369 4.93875 95.6418 4.65118 95.9125 4.65297C96.1363 4.65444 96.3983 4.86692 96.5323 5.15549C96.6003 5.30201 96.6474 5.3312 96.7309 5.27868C96.7776 5.24925 96.7582 5.04114 96.6825 4.75989C96.6389 4.59811 96.6239 4.57638 96.5213 4.52666C96.3916 4.46376 95.8845 4.4368 95.6998 4.48298ZM61.4323 4.4946C61.4226 4.50432 60.6637 4.59565 60.5928 4.59565C60.5832 4.59565 60.5794 4.6295 60.5844 4.67088C60.592 4.73441 60.6179 4.75413 60.7504 4.79764C60.8367 4.82599 60.909 4.84952 60.911 4.84997C60.913 4.8504 60.9286 4.88583 60.9456 4.92872C60.9647 4.97696 60.98 5.35238 60.9858 5.91375C60.9946 6.7622 60.9991 6.83055 61.0562 6.97131C61.1422 7.18365 61.2339 7.29145 61.4104 7.3878C61.5458 7.46173 61.5919 7.47154 61.8062 7.47214C62.0198 7.4727 62.0709 7.46224 62.2342 7.38443C62.3363 7.33585 62.5093 7.23063 62.6189 7.15058C62.7284 7.07056 62.8279 7.00507 62.84 7.00507C62.8521 7.00507 62.862 7.10712 62.862 7.23184C62.862 7.35657 62.8717 7.45875 62.8834 7.45895C62.8952 7.45912 63.1039 7.41334 63.3472 7.35719C63.5904 7.30104 63.8183 7.24962 63.8537 7.24293C63.9024 7.23369 63.9179 7.21126 63.9179 7.14967C63.9179 7.07061 63.9135 7.06826 63.7424 7.05596C63.5951 7.04538 63.5561 7.0309 63.4998 6.96596L63.4328 6.88851V5.68224V4.47594L63.3378 4.49366C63.2384 4.51217 62.4564 4.59412 62.3698 4.59508C62.3358 4.59548 62.3199 4.6181 62.3199 4.66598C62.3199 4.71992 62.3382 4.74004 62.3983 4.75235C62.4415 4.76119 62.5409 4.78381 62.6192 4.80266C62.8455 4.85714 62.8461 4.85975 62.8573 5.87375L62.8669 6.74086L62.7717 6.8208C62.6302 6.93965 62.3948 7.03719 62.209 7.05392C61.919 7.08005 61.7012 6.93514 61.6029 6.65075C61.5722 6.56191 61.5644 6.31482 61.5673 5.50981L61.5709 4.48227H61.5078C61.4731 4.48227 61.4392 4.48782 61.4323 4.4946ZM70.9912 4.73557C71.3322 4.90834 71.5237 5.31717 71.5564 5.94209C71.5991 6.75656 71.3312 7.25767 70.8521 7.2594C70.6459 7.26016 70.5223 7.21075 70.3585 7.06205C70.0706 6.80064 69.9312 6.40161 69.9276 5.82871C69.9258 5.55066 69.9371 5.45233 69.9893 5.29013C70.1594 4.76102 70.581 4.52768 70.9912 4.73557ZM79.5169 4.94485C79.8433 5.10914 80.0133 5.41902 80.0341 5.88756C80.0539 6.33302 79.962 6.64508 79.7386 6.89076C79.4508 7.20716 79.0238 7.25208 78.6353 7.00683L78.4998 6.92128V6.01591V5.1105L78.6037 5.04669C78.6609 5.0116 78.7797 4.95267 78.8677 4.91573C79.0749 4.82874 79.3069 4.83917 79.5169 4.94485ZM57.8112 6.34818C57.8112 6.83599 57.8089 6.85546 57.747 6.91179C57.5706 7.07194 57.3361 7.12226 57.1489 7.04C56.9682 6.96063 56.8884 6.83738 56.8742 6.61588C56.8642 6.45913 56.8721 6.42282 56.938 6.32389C57.0013 6.22887 57.0734 6.18165 57.3908 6.02722C57.5985 5.92619 57.778 5.84339 57.7898 5.84319C57.8015 5.84302 57.8112 6.07028 57.8112 6.34818ZM84.2783 6.36935V6.87695L84.1246 6.9682C83.9146 7.09289 83.7593 7.11327 83.6017 7.03691C83.3018 6.89149 83.2309 6.47679 83.4675 6.25149C83.5566 6.16674 84.1985 5.84073 84.2498 5.85425C84.2675 5.85893 84.2783 6.05488 84.2783 6.36935ZM21.0282 8.47888V10.435H19.844H18.6597V11.1294V11.8239H19.8146H20.9696L20.9783 16.0829C20.9879 20.7404 20.9794 20.497 21.1542 21.0962C21.3161 21.6511 21.5465 22.0571 21.9175 22.4409C22.3891 22.929 22.993 23.2223 23.8533 23.3813C24.0764 23.4225 24.2834 23.4313 25.0233 23.4308C26.211 23.4301 26.6145 23.3739 27.4916 23.0874C27.9649 22.9328 28.7601 22.6391 28.9113 22.5631L29.0183 22.5093V21.9855C29.0183 21.6973 29.0077 21.4616 28.9947 21.4616C28.9818 21.4616 28.8373 21.4797 28.6737 21.5019C27.8536 21.6128 26.8499 21.6275 26.4929 21.5337C25.8218 21.3574 25.4753 20.9122 25.3228 20.0301C25.2353 19.5242 25.2207 18.7858 25.229 15.2963L25.2373 11.8381L27.0422 11.8308L28.8471 11.8235V11.1292V10.435H27.0351C26.0384 10.435 25.22 10.4318 25.2164 10.4279C25.2127 10.424 25.2031 9.54702 25.195 8.47908L25.1802 6.53736L23.1042 6.53008L21.0282 6.52282V8.47888ZM37.1083 10.0394C34.9243 10.2552 33.2042 11.087 32.0403 12.4901C31.0875 13.6386 30.6155 15.0576 30.6167 16.7703C30.6179 18.6049 31.2236 20.1869 32.3839 21.3857C33.5445 22.5849 35.1149 23.2943 37.0085 23.4748C37.4951 23.5211 38.9912 23.4964 39.434 23.4346C41.1575 23.1942 42.5713 22.5527 43.677 21.5096C44.3135 20.9089 44.89 20.0138 45.1807 19.1742C45.3082 18.8063 45.4688 18.1602 45.5281 17.7766C45.5997 17.3135 45.6141 16.3464 45.5568 15.8491C45.2614 13.2843 43.786 11.4194 41.3459 10.5262C40.7574 10.3108 40.1542 10.1672 39.4625 10.0779C39.0464 10.0243 37.5155 9.9992 37.1083 10.0394ZM71.1668 10.0546C69.7335 10.2097 68.4235 10.6346 67.4999 11.2439C67.1843 11.4521 66.7044 11.9061 66.5759 12.118C66.3467 12.4958 66.2636 12.8728 66.3162 13.2949C66.4156 14.0918 66.8942 14.6236 67.6989 14.8311C67.8604 14.8728 68.0571 14.8946 68.3708 14.9057C69.1855 14.9344 69.6336 14.8374 70.0908 14.5331C70.396 14.33 70.5448 14.1383 70.6539 13.8074C70.7154 13.621 70.7234 13.548 70.7208 13.1987C70.7176 12.7765 70.7176 12.7761 70.4993 12.0708C70.4424 11.887 70.3878 11.6869 70.3781 11.6261C70.3605 11.5172 70.3624 11.5143 70.5173 11.4159C70.7143 11.2908 71.0985 11.1326 71.323 11.0842C71.4171 11.0639 71.674 11.0467 71.8937 11.0459C72.4583 11.0438 72.7184 11.1263 73.0694 11.4188C73.2816 11.5956 73.4773 11.9012 73.5851 12.2242C73.7304 12.6595 73.7715 13.064 73.7745 14.0873L73.7771 14.9759L73.4774 15.1041C73.0645 15.2807 72.3706 15.5055 71.0947 15.8761C67.6005 16.8909 66.6524 17.4095 66.0336 18.6445C65.6855 19.339 65.5919 20.3839 65.8046 21.2009C66.0498 22.1433 66.888 22.959 67.9797 23.3176C68.4361 23.4675 68.7159 23.5025 69.4574 23.5025C70.4867 23.5025 71.0175 23.4041 71.8017 23.0677C72.5 22.7682 72.9931 22.4375 73.5975 21.8633C73.7148 21.7519 73.8049 21.6875 73.8301 21.6971C73.8527 21.7057 73.8869 21.7615 73.9061 21.821C74.0284 22.2006 74.348 22.64 74.6847 22.8918C75.1611 23.2479 75.6866 23.4062 76.6263 23.4765C77.7277 23.559 78.7443 23.3986 79.8786 22.9633L80.1834 22.8464V22.384V21.9217L79.6626 21.9016C78.8379 21.8696 78.5777 21.7968 78.2989 21.5199C78.1414 21.3634 78.062 21.2216 77.9927 20.9726C77.95 20.8196 77.9439 20.6682 77.9476 19.8601C77.9499 19.3456 77.9661 18.4272 77.9835 17.8191C78.0403 15.8379 78.0546 14.0833 78.0171 13.6948C77.9506 13.0068 77.7963 12.4533 77.5532 12.0313C76.9112 10.9166 75.8377 10.3212 74.091 10.1111C73.2002 10.0039 71.8722 9.97828 71.1668 10.0546ZM101.9 10.0546C101.226 10.1276 100.482 10.2835 99.8656 10.4813C98.908 10.7885 98.197 11.1906 97.6445 11.7371C97.3844 11.9945 97.3257 12.0704 97.2265 12.2775C97.0789 12.5856 97.0366 12.7684 97.0392 13.0853C97.045 13.8003 97.4045 14.393 98.0042 14.6766C98.4044 14.8658 98.5841 14.8961 99.3026 14.8955C99.8693 14.895 99.9707 14.8878 100.167 14.8343C100.46 14.7545 100.703 14.6369 100.932 14.4642C101.147 14.3029 101.273 14.1254 101.381 13.8298C101.451 13.6405 101.457 13.5907 101.454 13.2129C101.452 12.7728 101.449 12.7615 101.231 12.0649C101.173 11.8778 101.122 11.6744 101.12 11.6129C101.115 11.5048 101.12 11.4975 101.286 11.3981C101.505 11.2666 101.837 11.1312 102.056 11.0844C102.288 11.0349 102.956 11.0341 103.155 11.0831C103.525 11.1743 103.911 11.45 104.11 11.7659C104.418 12.2525 104.539 13.0179 104.519 14.3557L104.51 14.974L104.282 15.0744C103.803 15.285 103.222 15.4742 101.728 15.9058C98.331 16.8874 97.3591 17.4305 96.7483 18.6885C96.4143 19.3765 96.3295 20.456 96.5491 21.2238C96.8242 22.1854 97.6249 22.9602 98.713 23.3176C99.1718 23.4683 99.4484 23.5026 100.199 23.502C101.124 23.5012 101.585 23.4323 102.205 23.2019C103.035 22.8934 103.618 22.5296 104.292 21.9002C104.416 21.7837 104.537 21.6884 104.56 21.6884C104.584 21.6884 104.616 21.7388 104.637 21.8089C104.748 22.1809 105.064 22.6208 105.411 22.8848C105.885 23.2453 106.413 23.4057 107.36 23.4765C108.461 23.559 109.478 23.3986 110.612 22.9633L110.917 22.8464V22.384V21.9217L110.396 21.9016C109.571 21.8696 109.311 21.7968 109.032 21.5199C108.874 21.3626 108.801 21.2319 108.73 20.978C108.663 20.7411 108.661 20.0046 108.719 17.7766C108.773 15.7379 108.776 13.746 108.726 13.411C108.669 13.027 108.56 12.6164 108.441 12.3423C108.208 11.8059 107.769 11.2572 107.314 10.9348C107.083 10.7713 106.574 10.5279 106.181 10.3934C105.68 10.2216 104.969 10.1029 104.054 10.0382C103.502 9.99925 102.329 10.0082 101.9 10.0546ZM82.0383 12.4759V14.5735H82.492H82.9457L82.9811 14.4247C83.0441 14.1589 83.296 13.4634 83.4764 13.057C83.6983 12.5567 83.896 12.221 84.0786 12.0342C84.2312 11.878 84.3661 11.8226 84.8312 11.7254C85.392 11.6083 86.6033 11.5427 88.2377 11.5411C88.9367 11.5404 88.9685 11.5459 88.8764 11.6516C88.855 11.6762 88.6838 11.9196 88.496 12.1924C88.3082 12.4653 87.9639 12.9627 87.7309 13.2979C87.4978 13.6331 87.1701 14.1051 87.0028 14.3467C86.6565 14.8467 86.3576 15.2772 85.7233 16.1892C85.4794 16.54 85.1563 17.0056 85.0055 17.2239C84.8546 17.4421 84.5405 17.895 84.3075 18.2302C84.0744 18.5653 83.5607 19.3052 83.166 19.8742C82.5343 20.785 82.295 21.1295 81.6711 22.0265L81.5246 22.2371V22.6714V23.1057H87.8881H94.2517V20.7104V18.3152H93.7982H93.3447L93.295 18.5207C93.169 19.0418 92.6462 20.4885 92.4307 20.9126C92.1854 21.3952 91.8205 21.7011 91.3553 21.8141C90.8317 21.9412 88.4852 22.0133 87.0244 21.9471L86.6316 21.9293L86.7077 21.8159C86.8318 21.6308 87.6216 20.4833 87.888 20.101C88.0238 19.9061 88.3191 19.4788 88.5442 19.1514C88.7693 18.824 89.0777 18.3776 89.2294 18.1593C89.3811 17.941 89.8177 17.3096 90.1995 16.7562C90.5813 16.2027 91.0439 15.533 91.2275 15.268C91.8386 14.3857 93.8114 11.5289 93.9325 11.3507L94.0519 11.1751V10.7767V10.3783H88.0451H82.0383V12.4759ZM38.717 11.1159C39.6088 11.3283 40.2749 12.1605 40.5586 13.4168C40.9017 14.9365 40.9818 17.1582 40.7585 18.9672C40.5442 20.7047 39.9896 21.8265 39.1405 22.2402C38.8103 22.4011 38.6106 22.4534 38.2497 22.4733C37.0786 22.538 36.241 21.8897 35.7857 20.566C35.4768 19.6678 35.3712 18.8768 35.3351 17.189C35.2947 15.3034 35.4724 13.6836 35.8141 12.8215C36.1316 12.0205 36.6451 11.4208 37.1992 11.2038C37.5911 11.0504 38.2754 11.0107 38.717 11.1159ZM55.9285 11.9946C56.38 12.0487 56.7027 12.1726 57.0454 12.4235C57.6815 12.8891 58.1542 13.7333 58.3675 14.7844C58.6244 16.0503 58.6466 17.7293 58.4246 19.0997C58.1347 20.8897 57.3798 22.0843 56.3511 22.3813C55.9602 22.4942 55.312 22.4871 54.9487 22.3659C54.372 22.1736 53.8816 21.6426 53.5245 20.8238L53.3886 20.512L53.3883 16.7388L53.3881 12.9656L53.6235 12.7418C54.1144 12.2752 54.5682 12.0632 55.222 11.9949C55.5301 11.9627 55.6619 11.9627 55.9285 11.9946ZM26.9152 16.5081C26.9245 18.9401 26.9344 19.5581 26.9666 19.7183L27.0065 19.9168L27.1494 19.9251L27.2924 19.9334L27.4304 19.5849C28.0808 17.9424 28.4337 16.2431 28.5027 14.4219C28.5164 14.0602 28.5208 13.704 28.5125 13.6303L28.4972 13.4963H27.7005H26.9038L26.9152 16.5081ZM73.7789 16.99C73.7698 17.446 73.7545 18.4299 73.7449 19.1765L73.7274 20.5338L73.495 20.7647C72.9578 21.2983 72.4521 21.5185 71.7653 21.5177C70.9721 21.5169 70.4031 21.0757 70.2261 20.3242C70.044 19.5514 70.1846 18.6229 70.5744 18.0232C70.9121 17.5039 71.5387 17.052 72.4644 16.6602C72.9392 16.4592 73.7087 16.1626 73.7578 16.1616C73.7886 16.161 73.7924 16.3128 73.7789 16.99ZM104.512 17.0184C104.503 17.49 104.488 18.474 104.478 19.2051L104.461 20.5343L104.257 20.7379C103.88 21.115 103.514 21.3478 103.139 21.4484C102.876 21.5186 102.327 21.5343 102.088 21.4783C101.65 21.3757 101.288 21.095 101.101 20.7142C100.941 20.3884 100.891 20.121 100.892 19.6049C100.892 19.1348 100.934 18.8851 101.074 18.5028C101.208 18.1386 101.363 17.906 101.682 17.5924C102.14 17.1426 102.718 16.8299 104.011 16.3325C104.254 16.2389 104.47 16.162 104.491 16.1616C104.522 16.161 104.526 16.317 104.512 17.0184Z"
        fill="#0086C9"/>
</svg>
