<svg t="1592949988403" class="icon" viewBox="0 0 1024 1024" version="1.1" xmlns="http://www.w3.org/2000/svg" p-id="2992" width="200" height="200"><path d="M1021.923 480.491c0.366 5.924 1.17 11.702 1.316 17.656h-55.338c-7.24-241.072-201.02-434.836-442.077-442.077v-0.702a27.662 27.662 0 1 1 0-55.353c1.93 0 3.657 0.731 5.47 1.126 255.32 9.567 462.177 205.686 488.873 456.194 2.21 3.978 3.804 8.294 3.804 13.136 0 3.569-0.82 6.919-2.034 10.02zM411.636 332.103c17.218 0 31.158 12.375 31.158 27.676 0 15.301-13.94 27.677-31.158 27.677H276.765v138.368a27.647 27.647 0 0 1-27.677 27.676 27.647 27.647 0 0 1-27.676-27.676V387.44H86.54c-17.217 0-31.158-12.36-31.158-27.647 0-15.316 13.94-27.691 31.158-27.691h134.872v-82.005c-54.183 0-120.039-1.01-134.872-1.01-17.217 0-31.158-12.375-31.158-27.676 0-15.301 13.94-27.677 31.158-27.677h73.521L88.53 101.432a27.647 27.647 0 0 1 0-39.145 27.647 27.647 0 0 1 39.13 0l101.856 131.448h31.362L367.913 62.77c10.825-10.24 28.32-10.24 39.13 0 10.825 10.24 10.825 26.858 0 37.097l-76.71 93.87h81.303c17.218 0 31.158 12.375 31.158 27.676 0 15.3-13.94 27.676-31.158 27.676-11.205 0-74.106 0.146-135.31 0.146l0.439 10.035v72.849h134.871z m-355.61 193.72C63.28 766.91 257.06 960.66 498.147 967.902v55.353c-5.983-0.16-11.732-0.965-17.656-1.317-3.13 1.2-6.436 2.004-10.02 2.004-4.828 0-9.158-1.58-13.136-3.759C206.769 993.471 10.649 786.614 1.14 531.28c-0.395-1.829-1.112-3.51-1.112-5.456a27.662 27.662 0 1 1 55.339 0h0.672zM553.5 608.839c0-72.994 66.324-132.136 166.03-137.358v-25.16c0-17.218 12.375-31.188 27.676-31.188 15.301 0 27.677 13.97 27.677 31.188v27.866c72.98 12.112 122.627 55.543 134.271 110.223 2.385 4.374 4.096 9.158 4.096 14.482 0 17.642-15.11 31.919-33.732 31.919s-35.152-14.965-35.152-32.62c0-0.25 0 0.248 0 0-5.222-27.356-30.295-49.898-69.513-59.201V693.71c100.203 9.172 166.03 66.456 166.03 136.524s-65.827 127.353-166.03 136.51v26.039c0.03 17.217-12.346 31.157-27.647 31.157-15.301 0-27.676-13.94-27.676-31.157v-25.878c-87.886-8.074-148.184-53.656-161.641-112.242-2.56-4.373-4.389-9.157-4.389-14.437 0-17.657 16.267-31.948 36.307-31.948s36.307 14.306 36.307 31.948c0 0.219-0.146 0.438-0.175 0.629h1.726c6.334 30.865 39.905 55.513 91.85 62.023V746.182c-99.69-5.193-166.03-64.335-166.03-137.344zM719.53 535.2c-60.707 4.242-98.565 35.4-98.565 73.638 0 38.282 37.858 69.44 98.565 73.668V535.2z m55.353 367.81c58.03-7.226 93.4-37.023 93.4-72.775 0-35.765-35.37-65.563-93.4-72.79v145.566z" p-id="2993"></path></svg>
