<svg width="161px" height="150px" version="1.1" xmlns="http://www.w3.org/2000/svg" xmlns:xlink="http://www.w3.org/1999/xlink">
  <g>
    <path d="M120.117188,21.1835938 L42.0195312,21.3398438 L97.7792969,1.04492188 C105.095703,-1.61914062 113.1875,2.15429688 115.849609,9.47070313 L120.117188,21.1835938 Z" id="Path"></path>
    <path d="M137.5,149.414062 L9.765625,149.414062 C4.38085938,149.414062 0,145.033203 0,139.648438 L0,35.2519531 C0,29.8671875 4.38085938,25.4863281 9.765625,25.4863281 L137.5,25.4863281 C142.884766,25.4863281 147.265625,29.8671875 147.265625,35.2519531 L147.265625,64.71875 C147.265625,66.6601562 145.691406,68.234375 143.75,68.234375 C141.808594,68.234375 140.234375,66.6601562 140.234375,64.71875 L140.234375,35.2519531 C140.234375,33.7441406 139.007812,32.5175781 137.5,32.5175781 L9.765625,32.5175781 C8.2578125,32.5175781 7.03125,33.7441406 7.03125,35.2519531 L7.03125,139.648438 C7.03125,141.15625 8.2578125,142.382812 9.765625,142.382812 L137.5,142.382812 C139.007812,142.382812 140.234375,141.15625 140.234375,139.648438 L140.234375,108.470703 C140.234375,106.529297 141.808594,104.955078 143.75,104.955078 C145.691406,104.955078 147.265625,106.529297 147.265625,108.470703 L147.265625,139.648438 C147.265625,145.033203 142.884766,149.414062 137.5,149.414062 Z M153.90625,69.2871094 L98.2421875,69.2871094 C88.6582031,69.2871094 80.859375,77.0859375 80.859375,86.6699219 C80.859375,96.2539063 88.6582031,104.052734 98.2421875,104.052734 L153.90625,104.052734 L153.90625,69.2871094 M160.9375,62.2558594 L160.9375,111.083984 L98.2421875,111.083984 C84.7578125,111.083984 73.828125,100.154297 73.828125,86.6699219 C73.828125,73.1855469 84.7578125,62.2558594 98.2421875,62.2558594 L160.9375,62.2558594 Z M103.515625,78.8574219 C99.2011719,78.8574219 95.703125,82.3554688 95.703125,86.6699219 C95.703125,90.984375 99.2011719,94.4824219 103.515625,94.4824219 C107.830078,94.4824219 111.328125,90.984375 111.328125,86.6699219 C111.328125,82.3554688 107.830078,78.8574219 103.515625,78.8574219 Z" id="Shape"></path>
  </g>
</svg>
