<svg t="1593631835964" class="icon" viewBox="0 0 1024 1024" version="1.1" xmlns="http://www.w3.org/2000/svg" p-id="5201" width="200" height="200"><path d="M485.646222 413.795556l92.629334-92.629334c-23.239111-59.320889-10.908444-129.365333 37.034666-177.294222a165.134222 165.134222 0 0 1 148.309334-45.425778v0.085334a16.526222 16.526222 0 0 1 9.969777 27.278222h0.028445l-88.419556 88.419555a32.725333 32.725333 0 0 0 0 46.293334l47.217778 47.217777a32.725333 32.725333 0 0 0 46.293333 0l87.694223-87.694222a16.526222 16.526222 0 0 1 28.046222 9.272889h0.042666a165.134222 165.134222 0 0 1-45.411555 148.323556c-47.928889 47.928889-117.973333 60.273778-177.294222 37.020444l-20.081778 20.081778-14.037333-14.037333a28.444444 28.444444 0 0 0-40.220445 0l-50.289778 50.289777-50.275555-50.289777a28.330667 28.330667 0 0 0-11.235556-6.912z m-96.256 96.241777c1.351111 4.124444 3.655111 7.964444 6.926222 11.235556l50.275556 50.289778-50.275556 50.275555a28.444444 28.444444 0 0 0 0 40.234667l14.037334 14.037333-162.474667 162.460445a66.133333 66.133333 0 1 1-93.511111-93.511111L389.404444 510.037333z m160.540445 18.602667l58.552889-58.567111a16.355556 16.355556 0 0 1 23.153777 0l25.528889 25.543111c5.404444 5.390222 6.286222 13.568 2.673778 19.882667a33.066667 33.066667 0 0 0 44.672 42.951111l0.042667 0.071111c5.660444-2.702222 12.558222-1.962667 17.578666 2.161778l0.056889-0.056889 143.914667 143.928889a81.820444 81.820444 0 0 1 0 115.712l-71.296 71.296a81.820444 81.820444 0 0 1-115.726222 0l-142.791111-142.791111a16.540444 16.540444 0 0 1-2.872889-19.512889l-0.085334-0.056889a33.066667 33.066667 0 0 0-43.448889-43.832889 16.540444 16.540444 0 0 1-20.053333-3.057778l-25.216-25.216a16.355556 16.355556 0 0 1 0-23.139555l58.552889-58.567112L235.960889 308.195556h-37.475556a16.355556 16.355556 0 0 1-14.037333-7.936l-58.794667-97.991112a16.355556 16.355556 0 0 1 2.460445-19.996444l28.686222-28.672a16.355556 16.355556 0 0 1 19.996444-2.460444l97.991112 58.780444c4.920889 2.958222 7.936 8.291556 7.936 14.037333v37.489778L549.930667 528.64z m69.162666 192.312889a21.333333 21.333333 0 0 0 0 30.165333l90.510223 90.510222a21.333333 21.333333 0 0 0 30.165333-30.165333l-90.510222-90.510222a21.333333 21.333333 0 0 0-30.165334 0z m76.430223-76.430222a21.333333 21.333333 0 0 0 0 30.165333l90.510222 90.510222a21.333333 21.333333 0 1 0 30.165333-30.165333l-90.510222-90.510222a21.333333 21.333333 0 0 0-30.165333 0z" p-id="5202"></path></svg>
