<svg width="126px" height="128px" xmlns="http://www.w3.org/2000/svg" xmlns:xlink="http://www.w3.org/1999/xlink">
    <g id="Page-1" stroke="none" stroke-width="1" fill-rule="evenodd">
        <g id="statistics" transform="translate(0.500000, 0.718750)" fill-rule="nonzero">
            <path d="M103.129883,12.16875 L87.8705078,12.16875 L87.8705078,0.45 L114.949219,0.45 L115.403125,0 L115.849219,0.45 L118.925391,0.45 C122.161328,0.45 124.784766,3.07324219 124.784766,6.309375 L124.784766,37.3640625 L113.066016,37.3640625 L113.066016,18.8197266 L86.7494141,44.9121094 C85.1509743,46.4970509 82.7858777,47.0261706 80.6644531,46.2734375 L45.7246094,33.8753906 L9.15546875,58.9785156 L2.52324219,49.3171875 L41.5537109,22.5242188 C43.100139,21.4626416 45.0613366,21.205602 46.8291016,21.8328125 L81.1134766,33.9978516 L103.129883,12.16875 Z M50.4941406,114.769141 L75.3404297,114.769141 L75.3404297,70.0304688 L87.0591797,70.0304688 L87.0591797,114.769141 L113.094727,114.769141 L113.094727,53.5515625 L124.813477,53.5515625 L124.813477,120.628516 C124.813477,123.864648 122.190234,126.487891 118.954102,126.487891 L5.859375,126.487891 C2.62324219,126.487891 0,123.864648 0,120.628516 L0,83.2058594 L11.71875,83.2058594 L11.71875,114.769141 L38.7753906,114.769141 L38.7753906,54.2220703 L50.4941406,54.2220703 L50.4941406,114.769141 L50.4941406,114.769141 Z" id="Shape"></path>
        </g>
    </g>
</svg>
